<svg width="48" height="48" viewBox="0 0 48 48" fill="none" xmlns="http://www.w3.org/2000/svg">
<path opacity="0.3" fill-rule="evenodd" clip-rule="evenodd" d="M8 8L23.6314 5.06911C23.875 5.02343 24.125 5.02343 24.3686 5.06911L40 8V29.9033C40 33.696 38.0462 37.2211 34.83 39.2313L24.53 45.6687C24.2057 45.8714 23.7943 45.8714 23.47 45.6687L13.17 39.2313C9.95382 37.2211 8 33.696 8 29.9033L8 8Z" fill="#D64DF8"/>
<path fill-rule="evenodd" clip-rule="evenodd" d="M19 18.5C19 17.1193 20.1193 16 21.5 16H26.5C27.8807 16 29 17.1193 29 18.5V22H30C30.5523 22 31 22.4477 31 23V31C31 31.5523 30.5523 32 30 32H18C17.4477 32 17 31.5523 17 31V23C17 22.4477 17.4477 22 18 22H19V18.5ZM22.5 18C21.6716 18 21 18.6716 21 19.5V22H27V19.5C27 18.6716 26.3284 18 25.5 18H22.5Z" fill="#D64DF8"/>
</svg>
